<svg width="171" height="57" viewBox="0 0 171 57" fill="none" xmlns="http://www.w3.org/2000/svg">
<path d="M34.1273 46.9556L18.6153 50.9267C18.6153 50.9267 15.8225 51.2796 15.9726 48.1005C16.1226 44.9214 17.74 4.59635 17.74 4.59635C17.74 4.59635 17.79 2.67889 21.1219 2.57885C24.4539 2.47881 40.705 1.21717 40.705 1.21717C40.705 1.21717 42.4724 1.16715 42.6225 3.3375C42.7726 5.50784 42.0695 33.5584 42.0195 35.5286C42.0195 35.587 42.0695 35.6287 42.1251 35.6203L42.5669 35.5481C42.6114 35.5397 42.642 35.5036 42.6447 35.4592L43.7841 2.62887C43.7841 2.62887 43.2783 0 40.4522 0C37.626 0 19.8603 1.11713 19.8603 1.11713C19.8603 1.11713 16.4783 1.26719 16.3283 5.4078C16.1782 9.54841 15.0666 49.3149 15.0666 49.3149C15.0666 49.3149 15.3695 52.544 18.9516 51.6881C22.2891 50.8878 32.5517 47.9866 33.9356 47.5948C34.0328 47.567 34.1023 47.4892 34.119 47.3891L34.1829 47.0112C34.1885 46.9806 34.1579 46.9528 34.1273 46.9612V46.9556Z" fill="#006100"/>
<path d="M37.487 49.929C37.5871 49.8262 37.6871 49.7262 37.7844 49.6206C37.8789 49.5205 37.9734 49.4177 38.0651 49.3177C38.1179 49.2593 38.1679 49.1982 38.2207 49.1398C40.5967 46.4054 41.8416 43.3652 42.0195 41.7618C39.6907 48.4506 31.5096 53.5166 22.2446 53.3666C11.165 53.186 2.30022 45.8829 2.44472 37.0487C2.58923 28.2145 11.0372 21.3978 22.114 21.5756C28.3277 21.6756 38.0345 24.6825 41.7972 34.2114C39.1683 25.3327 29.5643 20.5363 20.894 20.5391C9.13639 20.5446 0.163219 27.9922 0.0020413 37.8768C-0.159137 47.7615 9.24477 55.9288 21.0024 56.1205C27.5774 56.2261 33.3798 53.9363 37.2453 50.1708C37.3286 50.0902 37.4065 50.0096 37.4843 49.929H37.487Z" fill="#FFC91F"/>
<path d="M41.4832 43.0928L40.5216 40.8974C41.0163 40.6167 41.2303 40.0054 40.9913 39.4774L29.417 13.8028C29.2975 13.5388 29.0808 13.3388 28.8223 13.2332V7.35571C28.8223 6.74157 28.3249 6.24414 27.7108 6.24414C27.0966 6.24414 26.5992 6.74157 26.5992 7.35571V13.2748C26.3269 13.4138 26.1184 13.6611 26.0323 13.9723L20.9552 32.6718C20.5967 32.5884 20.2299 32.7968 20.1271 33.1581L19.3156 36.0371C19.21 36.4067 19.4268 36.7902 19.7964 36.893C19.8019 36.893 19.8047 36.893 19.8103 36.893L18.657 41.1447C18.5181 41.6616 18.7654 42.1896 19.2211 42.423L18.6487 44.2516C18.6264 44.3238 18.6654 44.4016 18.7404 44.4267C18.7543 44.4322 18.7682 44.4322 18.7821 44.4322C18.8404 44.4322 18.896 44.3933 18.9155 44.335L19.4824 42.5175C19.5657 42.537 19.6463 42.5481 19.7297 42.5481C20.2188 42.5481 20.6662 42.223 20.8023 41.7283L27.8553 15.7481L38.9654 40.3944C39.1933 40.8974 39.7491 41.1475 40.266 41.0086L41.2303 43.2095C41.2525 43.2623 41.3053 43.2929 41.3581 43.2929C41.3776 43.2929 41.3942 43.2901 41.4137 43.2817C41.4832 43.2512 41.5165 43.1678 41.4859 43.0983L41.4832 43.0928Z" fill="#D52A10"/>
<path d="M62.3779 19.2192C61.9138 19.4498 60.9885 19.6833 59.8019 19.6833C57.0507 19.6833 54.9832 17.9464 54.9832 14.7479C54.9832 11.5493 57.0535 9.62354 60.077 9.62354C61.2914 9.62354 62.0583 9.88476 62.3918 10.057L62.0889 11.0853C61.6109 10.8546 60.9301 10.6795 60.1214 10.6795C57.8344 10.6795 56.3143 12.1412 56.3143 14.7034C56.3143 17.0905 57.6899 18.6245 60.0631 18.6245C60.8301 18.6245 61.6109 18.4661 62.1195 18.2188L62.3807 19.2164L62.3779 19.2192Z" fill="#006100"/>
<path d="M81.7776 14.5589C81.7776 17.9159 79.7379 19.6972 77.248 19.6972C74.7581 19.6972 72.8628 17.6991 72.8628 14.7479C72.8628 11.6494 74.7886 9.62354 77.3925 9.62354C79.9964 9.62354 81.7776 11.6633 81.7776 14.5589ZM74.2078 14.7201C74.2078 16.8043 75.3361 18.6717 77.3202 18.6717C79.3044 18.6717 80.4465 16.8349 80.4465 14.6201C80.4465 12.6804 79.4322 10.6545 77.3341 10.6545C75.236 10.6545 74.2078 12.5803 74.2078 14.7201Z" fill="#006100"/>
<path d="M92.7377 9.78467H93.9966V18.4827H98.165V19.5387H92.7377V9.78467Z" fill="#006100"/>
<path d="M113.28 14.9646H109.489V18.4799H113.716V19.5359H108.23V9.78185H113.499V10.8378H109.489V13.9197H113.28V14.9618V14.9646ZM113.032 7.56982L111.195 9.26219H110.153L111.498 7.56982H113.032Z" fill="#006100"/>
<path d="M131.354 19.1051C130.79 19.308 129.675 19.6415 128.358 19.6415C126.882 19.6415 125.665 19.2663 124.712 18.3521C123.873 17.5406 123.35 16.2401 123.35 14.72C123.364 11.8105 125.362 9.68457 128.633 9.68457C129.761 9.68457 130.645 9.9319 131.065 10.132L130.762 11.1602C130.239 10.9295 129.589 10.7406 128.605 10.7406C126.232 10.7406 124.684 12.2162 124.684 14.6616C124.684 17.1071 126.174 18.5994 128.447 18.5994C129.272 18.5994 129.836 18.4827 130.125 18.3382V15.4286H128.144V14.4143H131.357V19.1024L131.354 19.1051Z" fill="#006100"/>
<path d="M143.673 9.78467V19.5387H142.414V9.78467H143.673Z" fill="#006100"/>
<path d="M163.487 14.5589C163.487 17.9159 161.447 19.6972 158.957 19.6972C156.467 19.6972 154.572 17.6991 154.572 14.7479C154.572 11.6494 156.498 9.62354 159.101 9.62354C161.705 9.62354 163.487 11.6633 163.487 14.5589ZM155.917 14.7201C155.917 16.8043 157.045 18.6717 159.029 18.6717C161.013 18.6717 162.155 16.8349 162.155 14.6201C162.155 12.6804 161.141 10.6545 159.043 10.6545C156.945 10.6545 155.917 12.5803 155.917 14.7201Z" fill="#006100"/>
<path d="M65.5932 41.6868L59.0155 22.9624H56.281C55.1722 22.9624 54.1857 23.6683 53.83 24.7187L48.0637 41.6868H50.8871C51.7013 41.6868 52.4183 41.1561 52.6545 40.378L53.4187 37.863H59.5073L58.5597 34.62H54.3385L56.8312 27.1864L61.1413 40.4141C61.3887 41.1755 62.0973 41.6896 62.8976 41.6896H65.596L65.5932 41.6868Z" fill="#006100"/>
<path d="M100.071 41.6868L93.4936 22.9624H90.7592C89.6504 22.9624 88.6639 23.6683 88.3082 24.7187L82.5419 41.6868H85.3653C86.1795 41.6868 86.8965 41.1561 87.1327 40.378L87.8969 37.863H93.9855L93.0379 34.62H88.8167L91.3094 27.1864L95.6195 40.4141C95.8668 41.1755 96.5755 41.6896 97.3758 41.6896H100.074L100.071 41.6868Z" fill="#006100"/>
<path d="M147.736 41.6868L141.158 22.9624H138.423C137.315 22.9624 136.328 23.6683 135.972 24.7187L130.206 41.6868H133.029C133.844 41.6868 134.561 41.1561 134.797 40.378L135.561 37.863H141.65L140.702 34.62H136.481L138.974 27.1864L143.284 40.4141C143.531 41.1755 144.24 41.6896 145.04 41.6896H147.738L147.736 41.6868Z" fill="#006100"/>
<path d="M170.865 41.6868L164.287 22.9624H161.552C160.444 22.9624 159.457 23.6683 159.101 24.7187L153.335 41.6868H156.158C156.973 41.6868 157.69 41.1561 157.926 40.378L158.69 37.863H164.779L163.831 34.62H159.61L162.103 27.1864L166.413 40.4141C166.66 41.1755 167.369 41.6896 168.169 41.6896H170.867L170.865 41.6868Z" fill="#006100"/>
<path d="M150.784 22.9651H152.81V39.861C152.81 40.8697 151.99 41.6895 150.981 41.6895H148.956V24.7936C148.956 23.7849 149.775 22.9651 150.784 22.9651Z" fill="#006100"/>
<path d="M127.308 22.9651V35.3063C127.308 37.246 125.735 38.8189 123.795 38.8189C121.855 38.8189 120.283 37.246 120.283 35.3063V22.9651H118.237C117.284 22.9651 116.512 23.7376 116.512 24.6908V35.5231C116.512 39.2052 119.496 42.1897 123.178 42.1897H124.415C128.097 42.1897 131.081 39.2052 131.081 35.5231V24.6908C131.081 23.7376 130.309 22.9651 129.356 22.9651H127.31H127.308Z" fill="#006100"/>
<path d="M114.511 31.5382H107.986V33.0638C107.986 34.042 108.778 34.834 109.756 34.834H111.846C111.487 36.9932 109.575 38.6439 107.266 38.6439C104.701 38.6439 102.62 36.6097 102.62 34.1031V30.5405C102.62 28.0312 104.701 25.9998 107.266 25.9998C108.847 25.9998 110.242 26.7751 111.079 27.9533C111.493 28.5397 112.146 28.9093 112.863 28.9093H115.261C114.366 25.1438 110.943 22.3594 106.882 22.4594C102.3 22.5706 98.6902 26.4305 98.6902 31.0157V33.614C98.6902 38.1909 102.278 42.0592 106.855 42.187C111.432 42.3149 115.492 38.5077 115.492 33.7891V31.5409H114.511V31.5382Z" fill="#006100"/>
<path d="M80.8745 39.8305V36.3346C80.8745 35.6288 80.7217 34.9257 80.3826 34.306C80.0936 33.7752 79.6351 33.2222 78.9209 32.861C80.3159 31.9995 81.2497 30.4627 81.2497 28.7009V27.8533C81.2497 25.1522 79.0599 22.9624 76.3587 22.9624H68.5694C67.4134 22.9624 66.4741 23.8989 66.4741 25.0577V41.6868H68.7028C69.5809 41.6868 70.2923 40.9754 70.2923 40.0973V34.6895H74.9832C74.9832 34.6895 76.9534 34.5811 76.9534 37.0071V40.7059C76.9534 40.7059 77.1035 41.6896 78.7514 41.6896H81.597C81.597 41.6896 80.8745 41.3311 80.8745 39.8333V39.8305ZM70.2951 26.3055H75.1249C76.4421 26.3055 77.5092 27.3726 77.5092 28.6898C77.5092 30.007 76.4421 31.0741 75.1249 31.0741H70.2951V26.3082V26.3055Z" fill="#006100"/>
</svg>
