<svg xmlns="http://www.w3.org/2000/svg" width="512" height="512" viewBox="0 0 512 512">
  <rect width="512" height="512" rx="112" fill="#FFFFFF"/>
  <g fill="none" stroke="#14284B" stroke-width="26" stroke-linecap="round" stroke-linejoin="round">
    <!-- Frame (rounded square, open top-right so the arrow can break out) -->
    <path d="M330 104 L158 104 Q104 104 104 158 L104 354 Q104 408 158 408 L354 408 Q408 408 408 354 L408 206"/>
    <!-- Rising line + arrow breaking out of the corner -->
    <path d="M150 320 L208 286 L266 250 L322 214 L424 104" stroke-width="22"/>
    <path d="M424 104 L382 104 M424 104 L424 146" stroke-width="22"/>
  </g>
  <g fill="#14284B">
    <!-- Nodes on the line -->
    <circle cx="208" cy="286" r="15"/>
    <circle cx="266" cy="250" r="15"/>
    <circle cx="322" cy="214" r="15"/>
    <!-- Bars -->
    <rect x="152" y="326" width="46" height="52" rx="11"/>
    <rect x="233" y="292" width="46" height="86" rx="11"/>
    <rect x="314" y="250" width="46" height="128" rx="11"/>
  </g>
</svg>
